<svg width="83" height="32" viewBox="0 0 83 32" fill="none" xmlns="http://www.w3.org/2000/svg">
<path fill-rule="evenodd" clip-rule="evenodd" d="M9.16768 32C10.4652 32 11.6779 31.7321 12.8057 31.1963C13.9334 30.6606 14.9096 29.9117 15.7342 28.9498V31.4155H21.3185V0H15.7342V14.9954C14.9945 14.0944 14.0668 13.3912 12.9512 12.8858C11.8355 12.3805 10.6229 12.1279 9.3132 12.1279C7.50634 12.1279 5.90261 12.5632 4.50199 13.4338C3.10137 14.3044 2.00088 15.4855 1.20053 16.9772C0.400177 18.4688 0 20.1644 0 22.0639C0 24 0.412303 25.7169 1.23691 27.2146C2.06152 28.7123 3.16806 29.8843 4.55656 30.7306C5.94505 31.5769 7.48209 32 9.16768 32ZM10.8411 27.2329C9.88315 27.2329 9.02823 27.0107 8.27638 26.5662C7.52453 26.1218 6.93639 25.5129 6.51196 24.7397C6.08753 23.9665 5.87532 23.0868 5.87532 22.1005C5.87532 21.102 6.0936 20.21 6.53015 19.4247C6.96671 18.6393 7.55788 18.0213 8.30366 17.5708C9.04945 17.1202 9.90134 16.895 10.8593 16.895C11.8295 16.895 12.6904 17.1202 13.4423 17.5708C14.1941 18.0213 14.7853 18.6362 15.2158 19.4155C15.6463 20.1948 15.8615 21.0837 15.8615 22.0822C15.8615 23.0685 15.6463 23.9513 15.2158 24.7306C14.7853 25.5099 14.1941 26.1218 13.4423 26.5662C12.6904 27.0107 11.8234 27.2329 10.8411 27.2329ZM31.8686 8.37443C31.3714 8.67276 30.8197 8.82192 30.2133 8.82192C29.607 8.82192 29.0522 8.67276 28.549 8.37443C28.0457 8.0761 27.6425 7.67123 27.3393 7.15982C27.0362 6.6484 26.8846 6.08828 26.8846 5.47945C26.8846 4.87062 27.0362 4.31659 27.3393 3.81735C27.6425 3.31811 28.0457 2.91933 28.549 2.621C29.0522 2.32268 29.607 2.17352 30.2133 2.17352C30.8197 2.17352 31.3714 2.32268 31.8686 2.621C32.3658 2.91933 32.7629 3.31811 33.06 3.81735C33.3571 4.31659 33.5057 4.87062 33.5057 5.47945C33.5057 6.08828 33.3571 6.6484 33.06 7.15982C32.7629 7.67123 32.3658 8.0761 31.8686 8.37443ZM32.9964 12.7123H27.4121V31.4155H32.9964V12.7123ZM44.7106 20.347V31.4155H39.1264V12.7123H44.7106V14.7945C45.4261 13.9909 46.3204 13.3455 47.3936 12.8584C48.4668 12.3714 49.6522 12.1279 50.9498 12.1279C52.3807 12.1279 53.6388 12.4414 54.7242 13.0685C55.8095 13.6956 56.6614 14.5662 57.2798 15.6804C57.8983 16.7945 58.2075 18.0944 58.2075 19.5799V31.4155H52.6232V20.7671C52.6232 19.4277 52.2746 18.3836 51.5773 17.6347C50.88 16.8858 49.9251 16.5114 48.7124 16.5114C47.8878 16.5114 47.1754 16.6788 46.5751 17.0137C45.9748 17.3486 45.514 17.8052 45.1927 18.3836C44.8713 18.9619 44.7106 19.6164 44.7106 20.347ZM72.9049 32C74.8694 32 76.652 31.5738 78.2527 30.7215C79.8534 29.8691 81.0903 28.688 81.9634 27.1781L77.9435 25.1507C77.2523 25.9787 76.5338 26.5814 75.788 26.9589C75.0422 27.3364 74.1842 27.5251 73.2141 27.5251C72.1834 27.5251 71.2799 27.3272 70.5038 26.9315C69.7277 26.5358 69.1244 25.9848 68.694 25.2785C68.2635 24.5723 68.0482 23.7443 68.0482 22.7945H82.3272C82.3636 22.4779 82.3848 22.2618 82.3909 22.1461C82.397 22.0304 82.4 21.8935 82.4 21.7352C82.4 19.8234 81.9907 18.1492 81.1722 16.7123C80.3536 15.2755 79.2137 14.1522 77.7525 13.3425C76.2912 12.5327 74.5905 12.1279 72.6502 12.1279C71.1951 12.1279 69.8429 12.3805 68.5939 12.8858C67.3449 13.3912 66.2474 14.0974 65.3015 15.0046C64.3557 15.9117 63.619 16.968 63.0915 18.1735C62.564 19.379 62.3002 20.6758 62.3002 22.0639C62.3002 23.9513 62.7671 25.6438 63.7008 27.1416C64.6346 28.6393 65.8988 29.8234 67.4934 30.6941C69.0881 31.5647 70.8919 32 72.9049 32ZM68.2483 19.6895H76.9067C76.7854 18.9711 76.5277 18.3501 76.1336 17.8265C75.7395 17.3029 75.2393 16.9011 74.6329 16.621C74.0266 16.3409 73.3415 16.2009 72.5775 16.2009C71.765 16.2009 71.0495 16.3409 70.4311 16.621C69.8126 16.9011 69.3154 17.3029 68.9395 17.8265C68.5636 18.3501 68.3332 18.9711 68.2483 19.6895Z" fill="white"/>
</svg>
